<svg width="163" height="30" viewBox="0 0 163 30" fill="none" xmlns="http://www.w3.org/2000/svg">
<path d="M34.366 24V5.8H38.266V24H34.366ZM36.16 16.772V13.418H45.572V16.772H36.16ZM36.16 9.31V5.8H46.664V9.31H36.16ZM53.9865 24.26C52.5825 24.26 51.3258 23.9567 50.2165 23.35C49.1245 22.726 48.2578 21.8767 47.6165 20.802C46.9925 19.7273 46.6805 18.4967 46.6805 17.11C46.6805 15.7233 46.9925 14.5013 47.6165 13.444C48.2578 12.3693 49.1245 11.52 50.2165 10.896C51.3258 10.272 52.5825 9.96 53.9865 9.96C55.3731 9.96 56.6125 10.272 57.7045 10.896C58.8138 11.52 59.6805 12.3693 60.3045 13.444C60.9285 14.5013 61.2405 15.7233 61.2405 17.11C61.2405 18.4967 60.9285 19.7273 60.3045 20.802C59.6805 21.8767 58.8138 22.726 57.7045 23.35C56.6125 23.9567 55.3731 24.26 53.9865 24.26ZM53.9865 21.036C54.6625 21.036 55.2691 20.8713 55.8065 20.542C56.3438 20.1953 56.7598 19.7273 57.0545 19.138C57.3665 18.5313 57.5225 17.8553 57.5225 17.11C57.5225 16.3473 57.3665 15.6713 57.0545 15.082C56.7598 14.4753 56.3438 14.0073 55.8065 13.678C55.2691 13.3313 54.6625 13.158 53.9865 13.158C53.2931 13.158 52.6778 13.3313 52.1405 13.678C51.6031 14.0247 51.1785 14.4927 50.8665 15.082C50.5545 15.6713 50.4071 16.3473 50.4245 17.11C50.4071 17.8553 50.5545 18.5313 50.8665 19.138C51.1785 19.7273 51.6031 20.1953 52.1405 20.542C52.6778 20.8713 53.2931 21.036 53.9865 21.036ZM62.1722 24V10.246H65.7342L65.8122 12.872L65.2662 12.976C65.4569 12.5253 65.7082 12.118 66.0202 11.754C66.3322 11.39 66.6962 11.078 67.1122 10.818C67.5455 10.558 67.9962 10.3587 68.4642 10.22C68.9322 10.064 69.4002 9.986 69.8682 9.986C70.5789 9.986 71.2202 10.0987 71.7922 10.324C72.3642 10.5493 72.8495 10.9047 73.2482 11.39C73.6469 11.858 73.9589 12.482 74.1842 13.262L73.6122 13.21L73.7942 12.794C74.0195 12.378 74.3055 12.0053 74.6522 11.676C74.9989 11.3293 75.3889 11.0347 75.8222 10.792C76.2555 10.532 76.7062 10.3327 77.1742 10.194C77.6422 10.0553 78.1015 9.986 78.5522 9.986C79.6269 9.986 80.5195 10.2027 81.2302 10.636C81.9409 11.052 82.4695 11.6847 82.8162 12.534C83.1802 13.3833 83.3622 14.4233 83.3622 15.654V24H79.6702V15.914C79.6702 15.29 79.5835 14.7787 79.4102 14.38C79.2369 13.9813 78.9855 13.6867 78.6562 13.496C78.3269 13.288 77.9022 13.184 77.3822 13.184C76.9835 13.184 76.6109 13.2533 76.2642 13.392C75.9349 13.5133 75.6402 13.6953 75.3802 13.938C75.1375 14.1633 74.9469 14.432 74.8082 14.744C74.6695 15.056 74.6002 15.4027 74.6002 15.784V24H70.9082V15.888C70.9082 15.316 70.8129 14.8307 70.6222 14.432C70.4489 14.016 70.1975 13.704 69.8682 13.496C69.5389 13.288 69.1315 13.184 68.6462 13.184C68.2475 13.184 67.8749 13.2533 67.5282 13.392C67.1989 13.5133 66.9129 13.6953 66.6702 13.938C66.4275 14.1633 66.2282 14.432 66.0722 14.744C65.9335 15.056 65.8642 15.394 65.8642 15.758V24H62.1722ZM91.4539 24.26C90.0499 24.26 88.7932 23.9567 87.6839 23.35C86.5919 22.726 85.7252 21.8767 85.0839 20.802C84.4599 19.7273 84.1479 18.4967 84.1479 17.11C84.1479 15.7233 84.4599 14.5013 85.0839 13.444C85.7252 12.3693 86.5919 11.52 87.6839 10.896C88.7932 10.272 90.0499 9.96 91.4539 9.96C92.8405 9.96 94.0799 10.272 95.1719 10.896C96.2812 11.52 97.1479 12.3693 97.7719 13.444C98.3959 14.5013 98.7079 15.7233 98.7079 17.11C98.7079 18.4967 98.3959 19.7273 97.7719 20.802C97.1479 21.8767 96.2812 22.726 95.1719 23.35C94.0799 23.9567 92.8405 24.26 91.4539 24.26ZM91.4539 21.036C92.1299 21.036 92.7365 20.8713 93.2739 20.542C93.8112 20.1953 94.2272 19.7273 94.5219 19.138C94.8339 18.5313 94.9899 17.8553 94.9899 17.11C94.9899 16.3473 94.8339 15.6713 94.5219 15.082C94.2272 14.4753 93.8112 14.0073 93.2739 13.678C92.7365 13.3313 92.1299 13.158 91.4539 13.158C90.7605 13.158 90.1452 13.3313 89.6079 13.678C89.0705 14.0247 88.6459 14.4927 88.3339 15.082C88.0219 15.6713 87.8745 16.3473 87.8919 17.11C87.8745 17.8553 88.0219 18.5313 88.3339 19.138C88.6459 19.7273 89.0705 20.1953 89.6079 20.542C90.1452 20.8713 90.7605 21.036 91.4539 21.036ZM105.932 29.98C104.84 29.98 103.765 29.8153 102.708 29.486C101.65 29.174 100.792 28.7667 100.134 28.264L101.434 25.612C101.78 25.8547 102.179 26.0713 102.63 26.262C103.08 26.4527 103.548 26.6 104.034 26.704C104.536 26.808 105.048 26.86 105.568 26.86C106.469 26.86 107.206 26.7213 107.778 26.444C108.367 26.1667 108.809 25.7507 109.104 25.196C109.398 24.6587 109.546 23.9653 109.546 23.116V20.724L110.17 20.854C110.066 21.426 109.78 21.9547 109.312 22.44C108.844 22.908 108.254 23.2893 107.544 23.584C106.833 23.8613 106.105 24 105.36 24C104.077 24 102.942 23.7053 101.954 23.116C100.966 22.5267 100.186 21.712 99.6136 20.672C99.0416 19.632 98.7556 18.436 98.7556 17.084C98.7556 15.6973 99.0329 14.4753 99.5876 13.418C100.16 12.3433 100.931 11.5027 101.902 10.896C102.89 10.272 104.008 9.96 105.256 9.96C105.776 9.96 106.27 10.0207 106.738 10.142C107.223 10.2633 107.665 10.4367 108.064 10.662C108.48 10.87 108.844 11.1127 109.156 11.39C109.485 11.65 109.754 11.936 109.962 12.248C110.17 12.56 110.3 12.872 110.352 13.184L109.598 13.392L109.702 10.246H113.238V22.96C113.238 24.0867 113.073 25.0833 112.744 25.95C112.414 26.8167 111.929 27.5447 111.288 28.134C110.664 28.7407 109.892 29.2 108.974 29.512C108.072 29.824 107.058 29.98 105.932 29.98ZM106.036 21.036C106.764 21.036 107.396 20.8713 107.934 20.542C108.488 20.2127 108.913 19.7533 109.208 19.164C109.502 18.5747 109.65 17.8813 109.65 17.084C109.65 16.304 109.502 15.6193 109.208 15.03C108.913 14.4233 108.488 13.9553 107.934 13.626C107.396 13.2967 106.764 13.132 106.036 13.132C105.325 13.132 104.692 13.3053 104.138 13.652C103.6 13.9813 103.184 14.4407 102.89 15.03C102.595 15.6193 102.448 16.304 102.448 17.084C102.448 17.864 102.595 18.5573 102.89 19.164C103.184 19.7533 103.6 20.2127 104.138 20.542C104.692 20.8713 105.325 21.036 106.036 21.036ZM115.086 24V10.246H118.648L118.778 14.666L118.154 13.756C118.362 13.0453 118.7 12.404 119.168 11.832C119.636 11.2427 120.182 10.7833 120.806 10.454C121.447 10.1247 122.115 9.96 122.808 9.96C123.103 9.96 123.389 9.986 123.666 10.038C123.943 10.09 124.177 10.1507 124.368 10.22L123.38 14.276C123.172 14.172 122.921 14.0853 122.626 14.016C122.331 13.9293 122.028 13.886 121.716 13.886C121.3 13.886 120.91 13.964 120.546 14.12C120.199 14.2587 119.896 14.4667 119.636 14.744C119.376 15.004 119.168 15.316 119.012 15.68C118.873 16.044 118.804 16.4427 118.804 16.876V24H115.086ZM129.23 24.26C128.086 24.26 127.055 23.948 126.136 23.324C125.218 22.7 124.49 21.8507 123.952 20.776C123.415 19.7013 123.146 18.4707 123.146 17.084C123.146 15.6973 123.415 14.4753 123.952 13.418C124.507 12.3433 125.252 11.5027 126.188 10.896C127.124 10.272 128.19 9.96 129.386 9.96C130.062 9.96 130.678 10.064 131.232 10.272C131.804 10.4627 132.298 10.7313 132.714 11.078C133.148 11.4247 133.512 11.8233 133.806 12.274C134.101 12.7247 134.309 13.21 134.43 13.73L133.65 13.6V10.246H137.316V24H133.598V20.698L134.43 20.62C134.292 21.1053 134.066 21.5647 133.754 21.998C133.442 22.4313 133.052 22.8213 132.584 23.168C132.134 23.4973 131.622 23.766 131.05 23.974C130.478 24.1647 129.872 24.26 129.23 24.26ZM130.244 21.062C130.938 21.062 131.544 20.8973 132.064 20.568C132.584 20.2387 132.983 19.7793 133.26 19.19C133.555 18.5833 133.702 17.8813 133.702 17.084C133.702 16.304 133.555 15.6193 133.26 15.03C132.983 14.4407 132.584 13.9813 132.064 13.652C131.544 13.3053 130.938 13.132 130.244 13.132C129.568 13.132 128.97 13.3053 128.45 13.652C127.948 13.9813 127.549 14.4407 127.254 15.03C126.96 15.6193 126.812 16.304 126.812 17.084C126.812 17.8813 126.96 18.5833 127.254 19.19C127.549 19.7793 127.948 20.2387 128.45 20.568C128.97 20.8973 129.568 21.062 130.244 21.062ZM139.172 24V10.246H142.734L142.812 12.872L142.266 12.976C142.456 12.5253 142.708 12.118 143.02 11.754C143.332 11.39 143.696 11.078 144.112 10.818C144.545 10.558 144.996 10.3587 145.464 10.22C145.932 10.064 146.4 9.986 146.868 9.986C147.578 9.986 148.22 10.0987 148.792 10.324C149.364 10.5493 149.849 10.9047 150.248 11.39C150.646 11.858 150.958 12.482 151.184 13.262L150.612 13.21L150.794 12.794C151.019 12.378 151.305 12.0053 151.652 11.676C151.998 11.3293 152.388 11.0347 152.822 10.792C153.255 10.532 153.706 10.3327 154.174 10.194C154.642 10.0553 155.101 9.986 155.552 9.986C156.626 9.986 157.519 10.2027 158.23 10.636C158.94 11.052 159.469 11.6847 159.816 12.534C160.18 13.3833 160.362 14.4233 160.362 15.654V24H156.67V15.914C156.67 15.29 156.583 14.7787 156.41 14.38C156.236 13.9813 155.985 13.6867 155.656 13.496C155.326 13.288 154.902 13.184 154.382 13.184C153.983 13.184 153.61 13.2533 153.264 13.392C152.934 13.5133 152.64 13.6953 152.38 13.938C152.137 14.1633 151.946 14.432 151.808 14.744C151.669 15.056 151.6 15.4027 151.6 15.784V24H147.908V15.888C147.908 15.316 147.812 14.8307 147.622 14.432C147.448 14.016 147.197 13.704 146.868 13.496C146.538 13.288 146.131 13.184 145.646 13.184C145.247 13.184 144.874 13.2533 144.528 13.392C144.198 13.5133 143.912 13.6953 143.67 13.938C143.427 14.1633 143.228 14.432 143.072 14.744C142.933 15.056 142.864 15.394 142.864 15.758V24H139.172Z" fill="#4338CA"/>
<circle cx="14" cy="14" r="14" fill="url(#paint0_linear_2_25)"/>
<rect x="7" y="12.5857" width="1.58565" height="15" rx="0.792825" transform="rotate(-90 7 12.5857)" fill="white"/>
<rect x="7" y="15.1857" width="1.6" height="10" rx="0.8" transform="rotate(-90 7 15.1857)" fill="white"/>
<rect x="7" y="17.7713" width="1.58565" height="5" rx="0.792825" transform="rotate(-90 7 17.7713)" fill="white"/>
<defs>
<linearGradient id="paint0_linear_2_25" x1="4.48" y1="3.36" x2="29.4912" y2="29.3237" gradientUnits="userSpaceOnUse">
<stop stop-color="#4338CA"/>
<stop offset="0.823944" stop-color="#00C2FF"/>
</linearGradient>
</defs>
</svg>
