<svg width="186" height="45" viewBox="0 0 186 45" fill="none" xmlns="http://www.w3.org/2000/svg">
<path d="M37.73 33V12H42.23V33H37.73ZM39.8 24.66V20.79H50.66V24.66H39.8ZM39.8 16.05V12H51.92V16.05H39.8ZM60.369 33.3C58.749 33.3 57.299 32.95 56.019 32.25C54.759 31.53 53.759 30.55 53.019 29.31C52.299 28.07 51.939 26.65 51.939 25.05C51.939 23.45 52.299 22.04 53.019 20.82C53.759 19.58 54.759 18.6 56.019 17.88C57.299 17.16 58.749 16.8 60.369 16.8C61.969 16.8 63.399 17.16 64.659 17.88C65.939 18.6 66.939 19.58 67.659 20.82C68.379 22.04 68.739 23.45 68.739 25.05C68.739 26.65 68.379 28.07 67.659 29.31C66.939 30.55 65.939 31.53 64.659 32.25C63.399 32.95 61.969 33.3 60.369 33.3ZM60.369 29.58C61.149 29.58 61.849 29.39 62.469 29.01C63.089 28.61 63.569 28.07 63.909 27.39C64.269 26.69 64.449 25.91 64.449 25.05C64.449 24.17 64.269 23.39 63.909 22.71C63.569 22.01 63.089 21.47 62.469 21.09C61.849 20.69 61.149 20.49 60.369 20.49C59.569 20.49 58.859 20.69 58.239 21.09C57.619 21.49 57.129 22.03 56.769 22.71C56.409 23.39 56.239 24.17 56.259 25.05C56.239 25.91 56.409 26.69 56.769 27.39C57.129 28.07 57.619 28.61 58.239 29.01C58.859 29.39 59.569 29.58 60.369 29.58ZM69.8141 33V17.13H73.9241L74.0141 20.16L73.3841 20.28C73.6041 19.76 73.8941 19.29 74.2541 18.87C74.6141 18.45 75.0341 18.09 75.5141 17.79C76.0141 17.49 76.5341 17.26 77.0741 17.1C77.6141 16.92 78.1541 16.83 78.6941 16.83C79.5141 16.83 80.2541 16.96 80.9141 17.22C81.5741 17.48 82.1341 17.89 82.5941 18.45C83.0541 18.99 83.4141 19.71 83.6741 20.61L83.0141 20.55L83.2241 20.07C83.4841 19.59 83.8141 19.16 84.2141 18.78C84.6141 18.38 85.0641 18.04 85.5641 17.76C86.0641 17.46 86.5841 17.23 87.1241 17.07C87.6641 16.91 88.1941 16.83 88.7141 16.83C89.9541 16.83 90.9841 17.08 91.8041 17.58C92.6241 18.06 93.2341 18.79 93.6341 19.77C94.0541 20.75 94.2641 21.95 94.2641 23.37V33H90.0041V23.67C90.0041 22.95 89.9041 22.36 89.7041 21.9C89.5041 21.44 89.2141 21.1 88.8341 20.88C88.4541 20.64 87.9641 20.52 87.3641 20.52C86.9041 20.52 86.4741 20.6 86.0741 20.76C85.6941 20.9 85.3541 21.11 85.0541 21.39C84.7741 21.65 84.5541 21.96 84.3941 22.32C84.2341 22.68 84.1541 23.08 84.1541 23.52V33H79.8941V23.64C79.8941 22.98 79.7841 22.42 79.5641 21.96C79.3641 21.48 79.0741 21.12 78.6941 20.88C78.3141 20.64 77.8441 20.52 77.2841 20.52C76.8241 20.52 76.3941 20.6 75.9941 20.76C75.6141 20.9 75.2841 21.11 75.0041 21.39C74.7241 21.65 74.4941 21.96 74.3141 22.32C74.1541 22.68 74.0741 23.07 74.0741 23.49V33H69.8141ZM103.601 33.3C101.981 33.3 100.531 32.95 99.2506 32.25C97.9906 31.53 96.9906 30.55 96.2506 29.31C95.5306 28.07 95.1706 26.65 95.1706 25.05C95.1706 23.45 95.5306 22.04 96.2506 20.82C96.9906 19.58 97.9906 18.6 99.2506 17.88C100.531 17.16 101.981 16.8 103.601 16.8C105.201 16.8 106.631 17.16 107.891 17.88C109.171 18.6 110.171 19.58 110.891 20.82C111.611 22.04 111.971 23.45 111.971 25.05C111.971 26.65 111.611 28.07 110.891 29.31C110.171 30.55 109.171 31.53 107.891 32.25C106.631 32.95 105.201 33.3 103.601 33.3ZM103.601 29.58C104.381 29.58 105.081 29.39 105.701 29.01C106.321 28.61 106.801 28.07 107.141 27.39C107.501 26.69 107.681 25.91 107.681 25.05C107.681 24.17 107.501 23.39 107.141 22.71C106.801 22.01 106.321 21.47 105.701 21.09C105.081 20.69 104.381 20.49 103.601 20.49C102.801 20.49 102.091 20.69 101.471 21.09C100.851 21.49 100.361 22.03 100.001 22.71C99.6406 23.39 99.4706 24.17 99.4906 25.05C99.4706 25.91 99.6406 26.69 100.001 27.39C100.361 28.07 100.851 28.61 101.471 29.01C102.091 29.39 102.801 29.58 103.601 29.58ZM120.306 39.9C119.046 39.9 117.806 39.71 116.586 39.33C115.366 38.97 114.376 38.5 113.616 37.92L115.116 34.86C115.516 35.14 115.976 35.39 116.496 35.61C117.016 35.83 117.556 36 118.116 36.12C118.696 36.24 119.286 36.3 119.886 36.3C120.926 36.3 121.776 36.14 122.436 35.82C123.116 35.5 123.626 35.02 123.966 34.38C124.306 33.76 124.476 32.96 124.476 31.98V29.22L125.196 29.37C125.076 30.03 124.746 30.64 124.206 31.2C123.666 31.74 122.986 32.18 122.166 32.52C121.346 32.84 120.506 33 119.646 33C118.166 33 116.856 32.66 115.716 31.98C114.576 31.3 113.676 30.36 113.016 29.16C112.356 27.96 112.026 26.58 112.026 25.02C112.026 23.42 112.346 22.01 112.986 20.79C113.646 19.55 114.536 18.58 115.656 17.88C116.796 17.16 118.086 16.8 119.526 16.8C120.126 16.8 120.696 16.87 121.236 17.01C121.796 17.15 122.306 17.35 122.766 17.61C123.246 17.85 123.666 18.13 124.026 18.45C124.406 18.75 124.716 19.08 124.956 19.44C125.196 19.8 125.346 20.16 125.406 20.52L124.536 20.76L124.656 17.13H128.736V31.8C128.736 33.1 128.546 34.25 128.166 35.25C127.786 36.25 127.226 37.09 126.486 37.77C125.766 38.47 124.876 39 123.816 39.36C122.776 39.72 121.606 39.9 120.306 39.9ZM120.426 29.58C121.266 29.58 121.996 29.39 122.616 29.01C123.256 28.63 123.746 28.1 124.086 27.42C124.426 26.74 124.596 25.94 124.596 25.02C124.596 24.12 124.426 23.33 124.086 22.65C123.746 21.95 123.256 21.41 122.616 21.03C121.996 20.65 121.266 20.46 120.426 20.46C119.606 20.46 118.876 20.66 118.236 21.06C117.616 21.44 117.136 21.97 116.796 22.65C116.456 23.33 116.286 24.12 116.286 25.02C116.286 25.92 116.456 26.72 116.796 27.42C117.136 28.1 117.616 28.63 118.236 29.01C118.876 29.39 119.606 29.58 120.426 29.58ZM130.868 33V17.13H134.978L135.128 22.23L134.408 21.18C134.648 20.36 135.038 19.62 135.578 18.96C136.118 18.28 136.748 17.75 137.468 17.37C138.208 16.99 138.978 16.8 139.778 16.8C140.118 16.8 140.448 16.83 140.768 16.89C141.088 16.95 141.358 17.02 141.578 17.1L140.438 21.78C140.198 21.66 139.908 21.56 139.568 21.48C139.228 21.38 138.878 21.33 138.518 21.33C138.038 21.33 137.588 21.42 137.168 21.6C136.768 21.76 136.418 22 136.118 22.32C135.818 22.62 135.578 22.98 135.398 23.4C135.238 23.82 135.158 24.28 135.158 24.78V33H130.868ZM147.189 33.3C145.869 33.3 144.679 32.94 143.619 32.22C142.559 31.5 141.719 30.52 141.099 29.28C140.479 28.04 140.169 26.62 140.169 25.02C140.169 23.42 140.479 22.01 141.099 20.79C141.739 19.55 142.599 18.58 143.679 17.88C144.759 17.16 145.989 16.8 147.369 16.8C148.149 16.8 148.859 16.92 149.499 17.16C150.159 17.38 150.729 17.69 151.209 18.09C151.709 18.49 152.129 18.95 152.469 19.47C152.809 19.99 153.049 20.55 153.189 21.15L152.289 21V17.13H156.519V33H152.229V29.19L153.189 29.1C153.029 29.66 152.769 30.19 152.409 30.69C152.049 31.19 151.599 31.64 151.059 32.04C150.539 32.42 149.949 32.73 149.289 32.97C148.629 33.19 147.929 33.3 147.189 33.3ZM148.359 29.61C149.159 29.61 149.859 29.42 150.459 29.04C151.059 28.66 151.519 28.13 151.839 27.45C152.179 26.75 152.349 25.94 152.349 25.02C152.349 24.12 152.179 23.33 151.839 22.65C151.519 21.97 151.059 21.44 150.459 21.06C149.859 20.66 149.159 20.46 148.359 20.46C147.579 20.46 146.889 20.66 146.289 21.06C145.709 21.44 145.249 21.97 144.909 22.65C144.569 23.33 144.399 24.12 144.399 25.02C144.399 25.94 144.569 26.75 144.909 27.45C145.249 28.13 145.709 28.66 146.289 29.04C146.889 29.42 147.579 29.61 148.359 29.61ZM158.66 33V17.13H162.77L162.86 20.16L162.23 20.28C162.45 19.76 162.74 19.29 163.1 18.87C163.46 18.45 163.88 18.09 164.36 17.79C164.86 17.49 165.38 17.26 165.92 17.1C166.46 16.92 167 16.83 167.54 16.83C168.36 16.83 169.1 16.96 169.76 17.22C170.42 17.48 170.98 17.89 171.44 18.45C171.9 18.99 172.26 19.71 172.52 20.61L171.86 20.55L172.07 20.07C172.33 19.59 172.66 19.16 173.06 18.78C173.46 18.38 173.91 18.04 174.41 17.76C174.91 17.46 175.43 17.23 175.97 17.07C176.51 16.91 177.04 16.83 177.56 16.83C178.8 16.83 179.83 17.08 180.65 17.58C181.47 18.06 182.08 18.79 182.48 19.77C182.9 20.75 183.11 21.95 183.11 23.37V33H178.85V23.67C178.85 22.95 178.75 22.36 178.55 21.9C178.35 21.44 178.06 21.1 177.68 20.88C177.3 20.64 176.81 20.52 176.21 20.52C175.75 20.52 175.32 20.6 174.92 20.76C174.54 20.9 174.2 21.11 173.9 21.39C173.62 21.65 173.4 21.96 173.24 22.32C173.08 22.68 173 23.08 173 23.52V33H168.74V23.64C168.74 22.98 168.63 22.42 168.41 21.96C168.21 21.48 167.92 21.12 167.54 20.88C167.16 20.64 166.69 20.52 166.13 20.52C165.67 20.52 165.24 20.6 164.84 20.76C164.46 20.9 164.13 21.11 163.85 21.39C163.57 21.65 163.34 21.96 163.16 22.32C163 22.68 162.92 23.07 162.92 23.49V33H158.66Z" fill="#4338CA"/>
<circle cx="22.5" cy="22.5" r="12.5" transform="rotate(-62.7821 22.5 22.5)" fill="url(#paint0_linear_2_25)"/>
<rect x="16.6454" y="28.6736" width="1.67646" height="16" rx="0.4" transform="rotate(-134 16.6454 28.6736)" fill="white"/>
<rect x="21.2392" y="29.1119" width="1.67646" height="10.5937" rx="0.4" transform="rotate(-134 21.2392 29.1119)" fill="white"/>
<defs>
<linearGradient id="paint0_linear_2_25" x1="14" y1="13" x2="36.3314" y2="36.1818" gradientUnits="userSpaceOnUse">
<stop stop-color="#4338CA"/>
<stop offset="0.823944" stop-color="#00C2FF"/>
</linearGradient>
</defs>
</svg>
