<svg width="1075" height="240" viewBox="0 0 1075 240" fill="none" xmlns="http://www.w3.org/2000/svg">
<path d="M177 190V50H260V77.6H204.6V101.2H250.4V128.8H204.6V190H177ZM301.43 192.6C292.23 192.6 283.83 190.233 276.23 185.5C268.696 180.767 262.663 174.433 258.13 166.5C253.663 158.5 251.43 149.667 251.43 140C251.43 132.667 252.73 125.833 255.33 119.5C257.93 113.1 261.496 107.5 266.03 102.7C270.63 97.8333 275.963 94.0333 282.03 91.3C288.096 88.5667 294.563 87.2 301.43 87.2C310.63 87.2 318.996 89.5667 326.53 94.3C334.13 99.0333 340.163 105.4 344.63 113.4C349.163 121.4 351.43 130.267 351.43 140C351.43 147.267 350.13 154.067 347.53 160.4C344.93 166.733 341.33 172.333 336.73 177.2C332.196 182 326.896 185.767 320.83 188.5C314.83 191.233 308.363 192.6 301.43 192.6ZM301.43 165C305.696 165 309.53 163.867 312.93 161.6C316.33 159.267 318.996 156.2 320.93 152.4C322.863 148.6 323.83 144.467 323.83 140C323.83 135.4 322.796 131.2 320.73 127.4C318.73 123.533 316.03 120.467 312.63 118.2C309.23 115.933 305.496 114.8 301.43 114.8C297.23 114.8 293.43 115.967 290.03 118.3C286.63 120.633 283.93 123.7 281.93 127.5C279.996 131.3 279.03 135.467 279.03 140C279.03 144.733 280.03 149 282.03 152.8C284.096 156.533 286.83 159.5 290.23 161.7C293.63 163.9 297.363 165 301.43 165ZM356.609 190V90H384.209V97.4C387.609 94.2 391.543 91.7 396.009 89.9C400.476 88.1 405.209 87.2 410.209 87.2C417.009 87.2 423.243 88.7667 428.909 91.9C434.643 95.0333 439.243 99.2 442.709 104.4C446.243 99.2 450.843 95.0333 456.509 91.9C462.176 88.7667 468.376 87.2 475.109 87.2C482.376 87.2 488.943 88.9667 494.809 92.5C500.743 96.0333 505.476 100.767 509.009 106.7C512.543 112.567 514.309 119.133 514.309 126.4V190H486.709V134C486.709 130.533 485.843 127.4 484.109 124.6C482.443 121.733 480.209 119.467 477.409 117.8C474.609 116.067 471.476 115.2 468.009 115.2C464.543 115.2 461.376 116.033 458.509 117.7C455.709 119.367 453.443 121.633 451.709 124.5C450.043 127.3 449.209 130.467 449.209 134V190H421.609V134C421.609 130.467 420.776 127.3 419.109 124.5C417.443 121.633 415.176 119.367 412.309 117.7C409.509 116.033 406.376 115.2 402.909 115.2C399.509 115.2 396.376 116.067 393.509 117.8C390.709 119.467 388.443 121.733 386.709 124.6C385.043 127.4 384.209 130.533 384.209 134V190H356.609ZM566.391 192.6C557.191 192.6 548.791 190.233 541.191 185.5C533.657 180.767 527.624 174.433 523.091 166.5C518.624 158.5 516.391 149.667 516.391 140C516.391 132.667 517.691 125.833 520.291 119.5C522.891 113.1 526.457 107.5 530.991 102.7C535.591 97.8333 540.924 94.0333 546.991 91.3C553.057 88.5667 559.524 87.2 566.391 87.2C575.591 87.2 583.957 89.5667 591.491 94.3C599.091 99.0333 605.124 105.4 609.591 113.4C614.124 121.4 616.391 130.267 616.391 140C616.391 147.267 615.091 154.067 612.491 160.4C609.891 166.733 606.291 172.333 601.691 177.2C597.157 182 591.857 185.767 585.791 188.5C579.791 191.233 573.324 192.6 566.391 192.6ZM566.391 165C570.657 165 574.491 163.867 577.891 161.6C581.291 159.267 583.957 156.2 585.891 152.4C587.824 148.6 588.791 144.467 588.791 140C588.791 135.4 587.757 131.2 585.691 127.4C583.691 123.533 580.991 120.467 577.591 118.2C574.191 115.933 570.457 114.8 566.391 114.8C562.191 114.8 558.391 115.967 554.991 118.3C551.591 120.633 548.891 123.7 546.891 127.5C544.957 131.3 543.991 135.467 543.991 140C543.991 144.733 544.991 149 546.991 152.8C549.057 156.533 551.791 159.5 555.191 161.7C558.591 163.9 562.324 165 566.391 165ZM694.952 90H722.552V191.4C722.552 198.8 721.052 205.467 718.052 211.4C715.052 217.4 710.952 222.533 705.752 226.8C700.618 231.067 694.685 234.333 687.952 236.6C681.285 238.867 674.218 240 666.752 240C659.685 240 652.918 238.6 646.452 235.8C639.985 233.067 634.252 229.267 629.252 224.4C624.252 219.533 620.352 213.933 617.552 207.6L642.752 196.1C644.152 199.433 646.052 202.3 648.452 204.7C650.918 207.1 653.718 208.933 656.852 210.2C660.052 211.533 663.352 212.2 666.752 212.2C670.418 212.2 673.918 211.767 677.252 210.9C680.652 210.033 683.685 208.733 686.352 207C689.018 205.267 691.118 203.1 692.652 200.5C694.185 197.9 694.952 194.867 694.952 191.4V179.8C691.885 183.6 688.152 186.7 683.752 189.1C679.418 191.433 674.385 192.6 668.652 192.6C661.452 192.6 654.685 191.233 648.352 188.5C642.085 185.767 636.552 182 631.752 177.2C626.952 172.333 623.185 166.733 620.452 160.4C617.718 154.067 616.352 147.267 616.352 140C616.352 132.733 617.718 125.933 620.452 119.6C623.185 113.267 626.952 107.7 631.752 102.9C636.552 98.0333 642.085 94.2333 648.352 91.5C654.685 88.7667 661.452 87.4 668.652 87.4C674.385 87.4 679.418 88.6 683.752 91C688.152 93.3333 691.885 96.4 694.952 100.2V90ZM669.052 166.1C673.585 166.1 677.685 164.933 681.352 162.6C685.018 160.2 687.885 157.033 689.952 153.1C692.085 149.167 693.152 144.8 693.152 140C693.152 135.2 692.085 130.833 689.952 126.9C687.885 122.9 685.018 119.733 681.352 117.4C677.685 115.067 673.585 113.9 669.052 113.9C664.585 113.9 660.485 115.067 656.752 117.4C653.085 119.733 650.152 122.9 647.952 126.9C645.752 130.833 644.652 135.2 644.652 140C644.652 144.8 645.752 149.2 647.952 153.2C650.152 157.133 653.085 160.267 656.752 162.6C660.485 164.933 664.585 166.1 669.052 166.1ZM736.67 190L736.57 90H764.17L764.27 97.4C767.604 94.2 771.504 91.7 775.97 89.9C780.504 88.1 785.27 87.2 790.27 87.2C793.937 87.2 797.604 87.7333 801.27 88.8L790.37 116.7C787.97 115.7 785.537 115.2 783.07 115.2C779.604 115.2 776.437 116.033 773.57 117.7C770.704 119.367 768.437 121.633 766.77 124.5C765.104 127.3 764.27 130.467 764.27 134V190H736.67ZM870.869 90H898.469V190H870.769L869.469 179.6C866.869 183.467 863.535 186.6 859.469 189C855.402 191.4 850.635 192.6 845.169 192.6C837.702 192.6 830.735 191.2 824.269 188.4C817.802 185.6 812.102 181.733 807.169 176.8C802.235 171.867 798.369 166.167 795.569 159.7C792.835 153.167 791.469 146.167 791.469 138.7C791.469 131.567 792.769 124.9 795.369 118.7C797.969 112.5 801.635 107.033 806.369 102.3C811.102 97.5667 816.535 93.8667 822.669 91.2C828.869 88.5333 835.535 87.2 842.669 87.2C848.802 87.2 854.302 88.5 859.169 91.1C864.102 93.7 868.402 97 872.069 101L870.869 90ZM844.469 166.1C849.002 166.1 853.102 164.933 856.769 162.6C860.435 160.267 863.335 157.133 865.469 153.2C867.602 149.2 868.669 144.8 868.669 140C868.669 135.133 867.602 130.733 865.469 126.8C863.335 122.867 860.435 119.733 856.769 117.4C853.102 115.067 849.002 113.9 844.469 113.9C839.869 113.9 835.702 115.067 831.969 117.4C828.235 119.733 825.269 122.9 823.069 126.9C820.869 130.833 819.769 135.2 819.769 140C819.769 144.8 820.869 149.2 823.069 153.2C825.335 157.133 828.335 160.267 832.069 162.6C835.802 164.933 839.935 166.1 844.469 166.1ZM908.563 190V90H936.163V97.4C939.563 94.2 943.496 91.7 947.962 89.9C952.429 88.1 957.163 87.2 962.163 87.2C968.963 87.2 975.196 88.7667 980.863 91.9C986.596 95.0333 991.196 99.2 994.663 104.4C998.196 99.2 1002.8 95.0333 1008.46 91.9C1014.13 88.7667 1020.33 87.2 1027.06 87.2C1034.33 87.2 1040.9 88.9667 1046.76 92.5C1052.7 96.0333 1057.43 100.767 1060.96 106.7C1064.5 112.567 1066.26 119.133 1066.26 126.4V190H1038.66V134C1038.66 130.533 1037.8 127.4 1036.06 124.6C1034.4 121.733 1032.16 119.467 1029.36 117.8C1026.56 116.067 1023.43 115.2 1019.96 115.2C1016.5 115.2 1013.33 116.033 1010.46 117.7C1007.66 119.367 1005.4 121.633 1003.66 124.5C1002 127.3 1001.16 130.467 1001.16 134V190H973.563V134C973.563 130.467 972.729 127.3 971.063 124.5C969.396 121.633 967.129 119.367 964.263 117.7C961.463 116.033 958.329 115.2 954.863 115.2C951.463 115.2 948.329 116.067 945.463 117.8C942.663 119.467 940.396 121.733 938.663 124.6C936.996 127.4 936.163 130.533 936.163 134V190H908.563Z" fill="#4338CA"/>
<circle cx="75" cy="120" r="75" fill="#4338CA"/>
<circle cx="75" cy="120" r="65.625" fill="white"/>
<path d="M32.5735 162.426C43.8257 173.679 59.0869 180 74.9999 180C90.9129 180 106.174 173.679 117.426 162.426C128.679 151.174 135 135.913 135 120C135 104.087 128.679 88.8258 117.426 77.5736L74.9999 120L32.5735 162.426Z" fill="url(#paint0_angular_12_3)"/>
<defs>
<radialGradient id="paint0_angular_12_3" cx="0" cy="0" r="1" gradientUnits="userSpaceOnUse" gradientTransform="translate(74.9999 120) rotate(-45) scale(84.8528)">
<stop stop-color="#000E88"/>
<stop offset="1" stop-color="#6B61E8"/>
</radialGradient>
</defs>
</svg>
